<mxfile host="app.diagrams.net" modified="2023-10-27T14:52:09.634Z" agent="Mozilla/5.0 (Windows NT 10.0; Win64; x64) AppleWebKit/537.36 (KHTML, like Gecko) Chrome/118.0.0.0 Safari/537.36" version="21.6.8" etag="RcMsvXK9C03AoJMymM7z" type="github">
  <diagram name="第 1 页" id="0Ox70duCXc3XJv9AvU57">
    <mxGraphModel>
      <root>
        <mxCell id="0" />
        <mxCell id="1" parent="0" />
      </root>
    </mxGraphModel>
  </diagram>
</mxfile>
